<svg xmlns="http://www.w3.org/2000/svg" width="446" height="270" viewBox="0 0 446 270">
  <g id="Group_19117" data-name="Group 19117" transform="translate(-15978 4951)">
    <g id="Group_19102" data-name="Group 19102">
      <g id="Group_19104" data-name="Group 19104" transform="translate(10848.691 -2154.229)">
        <g id="Path_39771" data-name="Path 39771">
          <path id="Path_40154" data-name="Path 40154" d="M5473.789-2749.015a2.5,2.5,0,0,0,.684.744c.576.48,1.128.936,1.752,1.4l.7-.828a23.176,23.176,0,0,1-1.96-1.572,1.835,1.835,0,0,1-.624-1.668v-1.7h-1.2v1.752a2.29,2.29,0,0,1-.78,1.908,21.925,21.925,0,0,1-1.932,1.644l.708.84c.636-.5,1.344-1.1,1.836-1.56a3.311,3.311,0,0,0,.8-.96Zm5.8,3.732v-7.872h-1.18v2.508h-2.22v1.02h2.22v4.344Zm-5.728-.648h-1.188v3.72h7.136v-1.032h-5.948Zm10.5-2.916a2.684,2.684,0,0,0,.684.708c.576.48,1.116.888,1.74,1.32l.672-.864a18.94,18.94,0,0,1-1.92-1.44,1.876,1.876,0,0,1-.628-1.668v-.636h2.22v-1.02h-5.768v1.02h2.348v.684a2.25,2.25,0,0,1-.78,1.908,20.126,20.126,0,0,1-1.94,1.512l.7.852a19.627,19.627,0,0,0,1.86-1.44,3.5,3.5,0,0,0,.8-.936Zm-.2,2.9h-1.192v3.736h7.14v-1.032h-5.952Zm5.724.672v-7.88h-1.176v7.884Zm2.46.42h6.24v2.872h1.184v-3.876h-3.1v-1.92h4.512v-1.008h-1.772a14.262,14.262,0,0,0,.24-2.424v-1.5h-7.284v1.008h6.084v.444a11.222,11.222,0,0,1-.276,2.472h-7.14v1.008h4.44v1.92h-3.132Zm18.428-4.016a26.352,26.352,0,0,0,2.46,1.1l.456-.96a20.57,20.57,0,0,1-2.544-1.152,1.686,1.686,0,0,1-1.116-1.628h3.192v-1.008h-7.56v1.008h3.18c-.012.588-.156,1.1-1.128,1.632a20.6,20.6,0,0,1-2.544,1.152l.468.972c1-.384,1.812-.78,2.46-1.1.792-.4,1.2-.7,1.332-.972h.012A3.008,3.008,0,0,0,5510.773-2748.871Zm-.744,6.78v-3.792h4.48v-1.008h-10.156v1.008h4.476v3.792Zm12.6-4.632h1.18v-6.432h-1.18Zm-6.108,1.6h6.1v3.14h1.188v-4.164h-7.288Zm1.62-4.248a2.5,2.5,0,0,0,.684.744c.576.48,1.152.96,1.776,1.428l.7-.828a23.99,23.99,0,0,1-1.98-1.6,1.835,1.835,0,0,1-.624-1.668v-1.4h-1.2v1.452a2.29,2.29,0,0,1-.78,1.908,22.418,22.418,0,0,1-1.956,1.656l.708.84c.636-.5,1.368-1.116,1.86-1.572a3.309,3.309,0,0,0,.8-.96Z" fill="#7b807c"/>
        </g>
        <g id="Path_34985" data-name="Path 34985">
          <path id="Path_40155" data-name="Path 40155" d="M5457.309-2752.771a5,5,0,0,1,5,5,5,5,0,0,1-5,5,5,5,0,0,1-5-5A5,5,0,0,1,5457.309-2752.771Z" fill="#50bf99"/>
        </g>
        <g id="Path_39772" data-name="Path 39772">
          <path id="Path_40156" data-name="Path 40156" d="M5473.789-2714.015a2.5,2.5,0,0,0,.684.744c.576.48,1.128.936,1.752,1.4l.7-.828a23.176,23.176,0,0,1-1.96-1.572,1.835,1.835,0,0,1-.624-1.668v-1.7h-1.2v1.752a2.29,2.29,0,0,1-.78,1.908,21.925,21.925,0,0,1-1.932,1.644l.708.84c.636-.5,1.344-1.1,1.836-1.56a3.311,3.311,0,0,0,.8-.96Zm5.8,3.732v-7.872h-1.18v2.508h-2.22v1.02h2.22v4.344Zm-5.728-.648h-1.188v3.72h7.136v-1.032h-5.948Zm10.5-2.916a2.684,2.684,0,0,0,.684.708c.576.48,1.116.888,1.74,1.32l.672-.864a18.94,18.94,0,0,1-1.92-1.44,1.876,1.876,0,0,1-.628-1.668v-.636h2.22v-1.02h-5.768v1.02h2.348v.684a2.25,2.25,0,0,1-.78,1.908,20.126,20.126,0,0,1-1.94,1.512l.7.852a19.627,19.627,0,0,0,1.86-1.44,3.5,3.5,0,0,0,.8-.936Zm-.2,2.9h-1.192v3.736h7.14v-1.032h-5.952Zm5.724.672v-7.88h-1.176v7.884Zm2.46.42h6.24v2.872h1.184v-3.876h-3.1v-1.92h4.512v-1.008h-1.772a14.262,14.262,0,0,0,.24-2.424v-1.5h-7.284v1.008h6.084v.444a11.222,11.222,0,0,1-.276,2.472h-7.14v1.008h4.44v1.92h-3.132Zm21.648-8.3h-1.168v4h-1.26v-3.772H5510.4v10.3h1.164v-5.5h1.26v6.04h1.164Zm-6.82,5.772a2.745,2.745,0,0,0,.5.792c.48.576.984,1.1,1.62,1.74l.8-.792a17.436,17.436,0,0,1-1.74-1.9,2.83,2.83,0,0,1-.636-1.872v-1.064h1.892v-1h-1.884v-1.44h-1.152v1.448h-2v1h2v1.06a2.865,2.865,0,0,1-.6,1.9,17.608,17.608,0,0,1-1.86,2l.8.8c.636-.648,1.248-1.308,1.728-1.884a2.858,2.858,0,0,0,.516-.792Zm11.616,1.4v-2.048c1.248-.048,2.2-.12,3.252-.228l-.1-.984-1.224.108a14.623,14.623,0,0,0,.18-2.136v-1.368h-5.144v1.02h3.972v.456a10.9,10.9,0,0,1-.192,2.1c-1.212.06-2.58.072-4.656.072v1.02c1.068,0,1.956,0,2.736-.024v2.016Zm5.12,1.36v-8.532h-1.172v5.844h-2.34v1.02h2.34v1.668Zm-6.072-.756h-1.184v3.18h7.476v-1.02h-6.288Z" fill="#7b807c"/>
        </g>
        <g id="Path_35933" data-name="Path 35933">
          <path id="Path_40157" data-name="Path 40157" d="M5457.309-2717.771a5,5,0,0,1,5,5,5,5,0,0,1-5,5,5,5,0,0,1-5-5A5,5,0,0,1,5457.309-2717.771Z" fill="#6d8ecc"/>
        </g>
        <g id="Path_39773" data-name="Path 39773">
          <path id="Path_40158" data-name="Path 40158" d="M5473.8-2675.931h-1.192v3.72h7.18v-1.032H5473.8Zm5.724.648v-7.872h-1.176v7.872Zm-5.664-3.768a2.49,2.49,0,0,0,.684.732c.576.48,1.164.972,1.776,1.44l.7-.828a23.959,23.959,0,0,1-1.98-1.6,1.832,1.832,0,0,1-.632-1.664v-1.668h-1.2v1.716a2.292,2.292,0,0,1-.78,1.908,22.518,22.518,0,0,1-1.952,1.656l.708.84c.636-.5,1.368-1.116,1.86-1.572a3.3,3.3,0,0,0,.8-.96Zm11.928,7.3c2.172,0,3.456-.744,3.456-1.788v-.3c0-1.068-1.284-1.788-3.456-1.788s-3.456.72-3.456,1.788v.3c0,1.04,1.284,1.784,3.456,1.784Zm0-5.736c1.98,0,3.336-.54,3.336-1.548v-.336c0-1.008-1.356-1.548-3.336-1.548s-3.336.54-3.336,1.548v.336c0,1,1.356,1.544,3.336,1.544Zm-5.08.428v.988h10.156v-.984Zm1.044-4.248h8.064v-.984h-3.44v-1.032h-1.188v1.032h-3.432Zm4.036,6.648c1.4,0,2.28.4,2.28.888v.156c0,.492-.876.888-2.28.888s-2.28-.4-2.28-.888v-.156C5483.509-2674.263,5484.385-2674.659,5485.789-2674.659Zm0-5.316c1.38,0,2.16.264,2.16.708v.12c0,.444-.78.708-2.16.708s-2.16-.264-2.16-.708v-.124c0-.44.78-.7,2.16-.7Zm6.552,5.124h6.24v2.868h1.188v-3.876h-3.1v-1.92h4.512v-1.008h-1.772a14.262,14.262,0,0,0,.24-2.424v-1.5h-7.284v1.008h6.084v.444a11.222,11.222,0,0,1-.276,2.472h-7.14v1.008h4.44v1.92h-3.132Zm18.432-4.02a26.352,26.352,0,0,0,2.46,1.1l.456-.96a20.57,20.57,0,0,1-2.544-1.152,1.686,1.686,0,0,1-1.116-1.628h3.192v-1.008h-7.56v1.008h3.18c-.012.588-.156,1.1-1.128,1.632a20.6,20.6,0,0,1-2.544,1.152l.468.972c1-.384,1.812-.78,2.46-1.1.792-.4,1.2-.7,1.332-.972h.012A3.008,3.008,0,0,0,5510.773-2678.871Zm-.744,6.78v-3.792h4.48v-1.008h-10.156v1.008h4.476v3.792Zm12.6-4.632h1.18v-6.432h-1.18Zm-6.108,1.6h6.1v3.14h1.188v-4.164h-7.288Zm1.62-4.248a2.5,2.5,0,0,0,.684.744c.576.48,1.152.96,1.776,1.428l.7-.828a23.99,23.99,0,0,1-1.98-1.6,1.835,1.835,0,0,1-.624-1.668v-1.4h-1.2v1.452a2.29,2.29,0,0,1-.78,1.908,22.418,22.418,0,0,1-1.956,1.656l.708.84c.636-.5,1.368-1.116,1.86-1.572a3.309,3.309,0,0,0,.8-.96Z" fill="#7b807c"/>
        </g>
        <g id="Path_34986" data-name="Path 34986">
          <path id="Path_40159" data-name="Path 40159" d="M5457.309-2682.771a5,5,0,0,1,5,5,5,5,0,0,1-5,5,5,5,0,0,1-5-5A5,5,0,0,1,5457.309-2682.771Z" fill="#72d9b6"/>
        </g>
        <g id="Path_39774" data-name="Path 39774">
          <path id="Path_40160" data-name="Path 40160" d="M5473.8-2640.931h-1.192v3.72h7.18v-1.032H5473.8Zm5.724.648v-7.872h-1.176v7.872Zm-5.664-3.768a2.49,2.49,0,0,0,.684.732c.576.48,1.164.972,1.776,1.44l.7-.828a23.959,23.959,0,0,1-1.98-1.6,1.832,1.832,0,0,1-.632-1.664v-1.668h-1.2v1.716a2.292,2.292,0,0,1-.78,1.908,22.518,22.518,0,0,1-1.952,1.656l.708.84c.636-.5,1.368-1.116,1.86-1.572a3.3,3.3,0,0,0,.8-.96Zm11.928,7.3c2.172,0,3.456-.744,3.456-1.788v-.3c0-1.068-1.284-1.788-3.456-1.788s-3.456.72-3.456,1.788v.3c0,1.04,1.284,1.784,3.456,1.784Zm0-5.736c1.98,0,3.336-.54,3.336-1.548v-.336c0-1.008-1.356-1.548-3.336-1.548s-3.336.54-3.336,1.548v.336c0,1,1.356,1.544,3.336,1.544Zm-5.08.428v.988h10.156v-.984Zm1.044-4.248h8.064v-.984h-3.44v-1.032h-1.188v1.032h-3.432Zm4.036,6.648c1.4,0,2.28.4,2.28.888v.156c0,.492-.876.888-2.28.888s-2.28-.4-2.28-.888v-.156C5483.509-2639.263,5484.385-2639.659,5485.789-2639.659Zm0-5.316c1.38,0,2.16.264,2.16.708v.12c0,.444-.78.708-2.16.708s-2.16-.264-2.16-.708v-.124c0-.44.78-.7,2.16-.7Zm6.552,5.124h6.24v2.868h1.188v-3.876h-3.1v-1.92h4.512v-1.008h-1.772a14.262,14.262,0,0,0,.24-2.424v-1.5h-7.284v1.008h6.084v.444a11.222,11.222,0,0,1-.276,2.472h-7.14v1.008h4.44v1.92h-3.132Zm21.648-8.3h-1.164v4h-1.26v-3.776H5510.4v10.3h1.164v-5.5h1.26v6.04h1.164Zm-6.816,5.768a2.745,2.745,0,0,0,.5.792c.48.576.984,1.1,1.62,1.74l.8-.792a17.436,17.436,0,0,1-1.74-1.9,2.83,2.83,0,0,1-.636-1.872v-1.064h1.892v-1h-1.884v-1.44h-1.152v1.448h-2v1h2v1.06a2.865,2.865,0,0,1-.6,1.9,17.608,17.608,0,0,1-1.86,2l.8.8c.636-.648,1.248-1.308,1.728-1.884a2.858,2.858,0,0,0,.516-.792Zm11.616,1.4v-2.048c1.248-.048,2.2-.12,3.252-.228l-.1-.984-1.224.108a14.623,14.623,0,0,0,.18-2.136v-1.368h-5.144v1.02h3.972v.456a10.9,10.9,0,0,1-.192,2.1c-1.212.06-2.58.072-4.656.072v1.02c1.068,0,1.956,0,2.736-.024v2.016Zm5.12,1.36v-8.532h-1.172v5.844h-2.34v1.02h2.34v1.668Zm-6.072-.756h-1.184v3.18h7.476v-1.02h-6.288Z" fill="#7b807c"/>
        </g>
        <g id="Path_39775" data-name="Path 39775">
          <path id="Path_40161" data-name="Path 40161" d="M5457.309-2647.771a5,5,0,0,1,5,5,5,5,0,0,1-5,5,5,5,0,0,1-5-5A5,5,0,0,1,5457.309-2647.771Z" fill="#93b9ff"/>
        </g>
        <g id="Path_39776" data-name="Path 39776">
          <path id="Path_40162" data-name="Path 40162" d="M5479.109-2612.735h-1.18v1.524h-4.92v-1.512h-1.176v4.9h7.276Zm-3.04,10.644v-3.516h4.476v-1.008h-10.152v1.008h4.476v3.516Zm-3.06-8.112h4.92v1.356h-4.92Zm9.2-2.544v3.776h2.98v1.14h-4.48v1.008h10.156v-1h-4.476v-1.144h2.988v-1h-5.988v-1.768h5.92v-1.008Zm3.58,10.968c2.124,0,3.456-.876,3.456-1.992v-.408c0-1.14-1.344-1.992-3.456-1.992s-3.456.84-3.456,1.992v.408C5482.333-2602.643,5483.677-2601.779,5485.789-2601.779Zm0-3.42c1.356,0,2.28.516,2.28,1.092v.264c0,.576-.924,1.092-2.28,1.092s-2.28-.52-2.28-1.092v-.264C5483.509-2604.683,5484.433-2605.2,5485.789-2605.2Zm8.472-3.852a2.482,2.482,0,0,0,.684.732c.576.48,1.14.948,1.752,1.416l.7-.828a23.043,23.043,0,0,1-1.956-1.572,1.834,1.834,0,0,1-.632-1.668v-1.668h-1.2v1.716a2.292,2.292,0,0,1-.78,1.908,21.667,21.667,0,0,1-1.928,1.644l.708.84c.636-.5,1.344-1.1,1.836-1.56a3.3,3.3,0,0,0,.8-.96Zm5.472,3.768v-3.78h1.576v-1.032h-1.576v-3.06h-1.176v7.872Zm-5.568-.66h-1.188v3.732h7.056v-1.032h-5.868Z" fill="#7b807c"/>
        </g>
        <g id="Path_39777" data-name="Path 39777">
          <path id="Path_40163" data-name="Path 40163" d="M5457.309-2612.771a5,5,0,0,1,5,5,5,5,0,0,1-5,5,5,5,0,0,1-5-5A5,5,0,0,1,5457.309-2612.771Z" fill="#c9d28c"/>
        </g>
        <g id="Path_39778" data-name="Path 39778">
          <path id="Path_40164" data-name="Path 40164" d="M5475.469-2577.939c-2.256,0-3.72.96-3.72,2.376v.432c0,1.416,1.464,2.376,3.72,2.376s3.72-.96,3.72-2.376v-.432C5479.189-2576.979,5477.725-2577.939,5475.469-2577.939Zm2.52,10.824v-3.612h2.556v-1.008h-10.152v1.008h2.556v3.612h1.188v-3.612h2.664v3.612Zm-2.52-6.672c-1.536,0-2.56-.564-2.56-1.368v-.384c0-.8,1.02-1.368,2.556-1.368s2.556.564,2.556,1.368v.384C5478.025-2574.351,5477.009-2573.787,5475.469-2573.787Zm6.74-3.96v3.776h2.98v1.14h-4.48v1.008h10.156v-1h-4.476v-1.144h2.988v-1h-5.988v-1.768h5.92v-1.008Zm3.58,10.968c2.124,0,3.456-.876,3.456-1.992v-.408c0-1.14-1.344-1.992-3.456-1.992s-3.456.84-3.456,1.992v.408C5482.333-2567.643,5483.677-2566.779,5485.789-2566.779Zm0-3.42c1.356,0,2.28.516,2.28,1.092v.264c0,.576-.924,1.092-2.28,1.092s-2.28-.52-2.28-1.092v-.264C5483.509-2569.683,5484.433-2570.2,5485.789-2570.2Zm7.692,1.32c0,1.164,1.272,2.1,3.4,2.1s3.4-.936,3.4-2.1v-.48c0-1.164-1.272-2.1-3.4-2.1s-3.4.936-3.4,2.1Zm.948-5.424a2.5,2.5,0,0,0,.684.744c.576.48,1.128.936,1.752,1.4l.7-.828a23.043,23.043,0,0,1-1.956-1.568,1.835,1.835,0,0,1-.624-1.668v-1.44h-1.2v1.492a2.293,2.293,0,0,1-.78,1.908,21.7,21.7,0,0,1-1.936,1.64l.708.84c.636-.5,1.344-1.1,1.836-1.56a3.3,3.3,0,0,0,.8-.96Zm5.8,2.688v-6.54h-1.18v2.384h-2.22v1.02h2.22v3.132Zm-1.12,2.664c0,.588-.864,1.2-2.232,1.2s-2.232-.612-2.232-1.2v-.336c0-.588.864-1.2,2.232-1.2s2.232.616,2.232,1.2Z" fill="#7b807c"/>
        </g>
        <g id="Path_34987" data-name="Path 34987">
          <path id="Path_40165" data-name="Path 40165" d="M5457.309-2577.771a5,5,0,0,1,5,5,5,5,0,0,1-5,5,5,5,0,0,1-5-5A5,5,0,0,1,5457.309-2577.771Z" fill="#fdce4c"/>
        </g>
        <g id="Path_34909" data-name="Path 34909">
          <path id="Path_40166" data-name="Path 40166" d="M5275.318-2660.059" fill="#fff"/>
        </g>
        <g id="Path_34910" data-name="Path 34910">
          <path id="Path_40167" data-name="Path 40167" d="M5248.787-2747.88l-.057-.2-.277-1-.229-.828-.057-.2a93.051,93.051,0,0,0-31.253,15.867l.131.165.53.672.645.818.131.166,53.537,67.888Z" fill="#c9d28c"/>
        </g>
        <g id="Path_34911" data-name="Path 34911">
          <path id="Path_40168" data-name="Path 40168" d="M5288.2-2567l-.137-.843-.168-1.031-.034-.208-14.312-87.927-53.257,71.338-.126.169-.622.833-.513.688-.126.169a93.31,93.31,0,0,0,55.4,18.039,95.233,95.233,0,0,0,13.932-1.019Z" fill="#6d8ecc"/>
        </g>
        <g id="Path_34912" data-name="Path 34912">
          <path id="Path_40169" data-name="Path 40169" d="M5193.046-2702.334l-.186-.1-.9-.487-.767-.413-.186-.1a94.136,94.136,0,0,0,16.821,110.129,95.345,95.345,0,0,0,9.389,8.23l.126-.169.511-.685.623-.836.126-.169,54.121-72.5Z" fill="#72d9b6"/>
        </g>
        <g id="Path_34913" data-name="Path 34913">
          <path id="Path_40170" data-name="Path 40170" d="M5340.775-2726.25a93.368,93.368,0,0,0-65.419-27.521v92.729l-.014,1.939,14.6,89.691.033.208.168,1.029.137.844.034.208a94.025,94.025,0,0,0,76.615-108.679,94.024,94.024,0,0,0-26.156-50.447Z" fill="#50bf99"/>
        </g>
        <g id="Path_34914" data-name="Path 34914">
          <path id="Path_40171" data-name="Path 40171" d="M5250.2-2750.678l.056.2.229.827.278,1,.056.2,22.429,80.915v-86.235A94.474,94.474,0,0,0,5250.2-2750.678Z" fill="#fdce4c"/>
        </g>
        <g id="Path_34915" data-name="Path 34915">
          <path id="Path_40172" data-name="Path 40172" d="M5216.7-2731.118l-.131-.166-.646-.821-.528-.669-.13-.165a95.12,95.12,0,0,0-7.434,6.689A94.406,94.406,0,0,0,5192-2705.288l.185.1.765.412.906.488.185.1,76.282,41.075Z" fill="#93b9ff"/>
        </g>
        <g id="Path_34916" data-name="Path 34916">
          <path id="Path_40173" data-name="Path 40173" d="M5273.805-2658.853h0Z" fill="#fff"/>
        </g>
        <g id="Path_39769" data-name="Path 39769">
          <path id="Path_40174" data-name="Path 40174" d="M5129.309-2796.771h446v270h-446Z" fill="none"/>
        </g>
      </g>
    </g>
  </g>
</svg>
